<?xml version="1.0" encoding="UTF-8" standalone="no"?>
<!-- Created with Inkscape (http://www.inkscape.org/) -->

<svg
   xmlns:dc="http://purl.org/dc/elements/1.1/"
   xmlns:cc="http://creativecommons.org/ns#"
   xmlns:rdf="http://www.w3.org/1999/02/22-rdf-syntax-ns#"
   xmlns:svg="http://www.w3.org/2000/svg"
   xmlns="http://www.w3.org/2000/svg"
   version="1.1"
   width="210mm"
   height="297mm"
   id="svg5036">
  <defs
     id="defs3">
    <clipPath
       id="clipPath3665">
      <path
         d="m 0,0 612.283,0 0,858.898 L 0,858.898 0,0 z"
         id="path3667" />
    </clipPath>
    <clipPath
       id="clipPath3689">
      <path
         d="m 483.328,622.012 68.762,0 0,-68.762 -68.762,0 0,68.762 z"
         id="path3691" />
    </clipPath>
    <clipPath
       id="clipPath3645">
      <path
         d="m 0,0 612.283,0 0,858.898 L 0,858.898 0,0 z"
         id="path3647" />
    </clipPath>
    <clipPath
       id="clipPath3625">
      <path
         d="m 0,0 612.283,0 0,858.898 L 0,858.898 0,0 z"
         id="path3627" />
    </clipPath>
    <clipPath
       id="clipPath3605">
      <path
         d="m 0,0 612.283,0 0,858.898 L 0,858.898 0,0 z"
         id="path3607" />
    </clipPath>
    <clipPath
       id="clipPath3585">
      <path
         d="m 0,0 612.283,0 0,858.898 L 0,858.898 0,0 z"
         id="path3587" />
    </clipPath>
    <clipPath
       id="clipPath3565">
      <path
         d="m 0,0 612.283,0 0,858.898 L 0,858.898 0,0 z"
         id="path3567" />
    </clipPath>
    <clipPath
       id="clipPath3545">
      <path
         d="m 0,0 612.283,0 0,858.898 L 0,858.898 0,0 z"
         id="path3547" />
    </clipPath>
    <clipPath
       id="clipPath3521">
      <path
         d="m 0,0 612.283,0 0,858.898 L 0,858.898 0,0 z"
         id="path3523" />
    </clipPath>
    <clipPath
       id="clipPath3157">
      <path
         d="m 0,0 612.283,0 0,858.898 L 0,858.898 0,0 z"
         id="path3159" />
    </clipPath>
  </defs>
  <metadata
     id="metadata4">
    <rdf:RDF>
      <cc:Work
         rdf:about="">
        <dc:format>image/svg+xml</dc:format>
        <dc:type
           rdf:resource="http://purl.org/dc/dcmitype/StillImage" />
        <dc:title></dc:title>
      </cc:Work>
    </rdf:RDF>
  </metadata>
  <g
     id="layer1">
    <g
       transform="translate(-16.524163,30.961815)"
       id="g6452"
       style="fill:#000000">
      <g
         transform="matrix(7.4359594,0,0,-6.7588529,419.1033,364.56509)"
         id="g3161"
         style="fill:#000000">
        <path
           d="M 0,0 C -0.08,0.609 -0.451,1.323 -0.685,1.664 -1.87,3.111 -3.278,3.582 -4.941,3.374 -6.62,3.166 -7.99,1.607 -8.44,0.079 -6.06,-1.41 -2.374,-1.538 0,0"
           id="path3163"
           style="fill:#000000;fill-opacity:1;fill-rule:nonzero;stroke:none" />
      </g>
      <g
         transform="matrix(7.4359594,0,0,-6.7588529,344.13098,370.14182)"
         id="g3165"
         style="fill:#000000">
        <path
           d="M 0,0 0.076,-0.088 C 0.615,-0.44 1.105,-0.774 1.678,-1.027 4.722,-2.638 9.119,-2.24 11.725,-0.079 11.315,0.09 10.89,0.276 10.446,0.313 8.027,-1.307 4.193,-1.333 1.691,0.158 1.428,0.227 1.299,0.491 1.003,0.478 L 0,0 z"
           id="path3167"
           style="fill:#000000;fill-opacity:1;fill-rule:nonzero;stroke:none" />
      </g>
      <g
         transform="matrix(7.4359594,0,0,-6.7588529,312.44413,386.18666)"
         id="g3169"
         style="fill:#000000">
        <path
           d="M 0,0 C 0.36,-0.073 0.739,-0.081 1.087,0.059 2.055,0.681 3.086,1.202 4.084,1.725 L 3.363,1.855 C 2.107,1.601 1.018,0.67 0,0"
           id="path3171"
           style="fill:#000000;fill-opacity:1;fill-rule:nonzero;stroke:none" />
      </g>
      <g
         transform="matrix(7.4359594,0,0,-6.7588529,336.74707,388.20756)"
         id="g3173"
         style="fill:#000000">
        <path
           d="M 0,0 C 0.732,0.38 1.449,0.825 2.133,1.255 1.886,1.277 1.71,1.478 1.429,1.418 0.466,1.044 -0.481,0.603 -1.301,-0.055 -0.876,-0.163 -0.415,-0.172 0,0"
           id="path3175"
           style="fill:#000000;fill-opacity:1;fill-rule:nonzero;stroke:none" />
      </g>
      <g
         transform="matrix(7.4359594,0,0,-6.7588529,342.42963,391.20714)"
         id="g3177"
         style="fill:#000000">
        <path
           d="M 0,0 C 1.145,-0.32 2.018,0.501 2.836,1.043 1.675,1.397 0.817,0.51 0,0"
           id="path3179"
           style="fill:#000000;fill-opacity:1;fill-rule:nonzero;stroke:none" />
      </g>
      <g
         transform="matrix(7.4359594,0,0,-6.7588529,356.58249,393.03338)"
         id="g3181"
         style="fill:#000000">
        <path
           d="M 0,0 C 0.965,-0.284 1.768,0.358 2.421,0.887 1.424,1.221 0.733,0.445 0,0"
           id="path3183"
           style="fill:#000000;fill-opacity:1;fill-rule:nonzero;stroke:none" />
      </g>
      <g
         transform="matrix(7.4359594,0,0,-6.7588529,302.89338,391.67823)"
         id="g3185"
         style="fill:#000000">
        <path
           d="m 0,0 c -1.205,-0.946 -2.392,-1.859 -3.501,-2.955 0.46,-0.059 0.955,0.03 1.291,0.352 1.172,0.963 2.429,2.055 3.647,2.869 C 0.929,0.326 0.385,0.321 0,0"
           id="path3187"
           style="fill:#000000;fill-opacity:1;fill-rule:nonzero;stroke:none" />
      </g>
      <g
         transform="matrix(7.4359594,0,0,-6.7588529,368.38411,396.03972)"
         id="g3189"
         style="fill:#000000">
        <path
           d="M 0,0 C 0.23,-0.021 0.525,-0.06 0.741,0.034 1.023,0.127 1.177,0.42 1.151,0.733 0.751,0.494 0.384,0.255 0,0"
           id="path3191"
           style="fill:#000000;fill-opacity:1;fill-rule:nonzero;stroke:none" />
      </g>
      <g
         transform="matrix(7.4359594,0,0,-6.7588529,303.72026,403.59544)"
         id="g3193"
         style="fill:#000000">
        <path
           d="M 0,0 C 0.328,-0.056 0.755,-0.098 1.07,-0.006 1.868,0.405 2.688,1.063 3.39,1.591 1.969,2.065 1.081,0.553 0,0"
           id="path3195"
           style="fill:#000000;fill-opacity:1;fill-rule:nonzero;stroke:none" />
      </g>
      <g
         transform="matrix(7.4359594,0,0,-6.7588529,323.91335,403.53461)"
         id="g3197"
         style="fill:#000000">
        <path
           d="M 0,0 0.295,-0.039 C 1.311,-0.258 1.972,0.666 2.69,1.145 L 1.901,1.178 C 1.109,1.079 0.634,0.398 0,0"
           id="path3199"
           style="fill:#000000;fill-opacity:1;fill-rule:nonzero;stroke:none" />
      </g>
      <g
         transform="matrix(7.4359594,0,0,-6.7588529,354.42235,396.55272)"
         id="g3201"
         style="fill:#000000">
        <path
           d="m 0,0 c -0.723,0.081 -1.179,-0.502 -1.714,-0.886 0.868,-0.232 1.636,0.295 2.256,0.858 C 0.344,-0.057 0.198,0.012 0,0"
           id="path3203"
           style="fill:#000000;fill-opacity:1;fill-rule:nonzero;stroke:none" />
      </g>
      <g
         transform="matrix(7.4359594,0,0,-6.7588529,370.63051,399.41915)"
         id="g3205"
         style="fill:#000000">
        <path
           d="M 0,0 C -0.67,0.228 -1.301,-0.039 -1.787,-0.473 -1.121,-0.849 -0.5,-0.302 0,0"
           id="path3207"
           style="fill:#000000;fill-opacity:1;fill-rule:nonzero;stroke:none" />
      </g>
      <g
         transform="matrix(7.4359594,0,0,-6.7588529,462.77097,472.82705)"
         id="g3209"
         style="fill:#000000">
        <path
           d="m 0,0 c -0.425,0.108 -0.952,0.119 -1.271,-0.204 -0.449,-0.221 -0.147,-0.956 -0.808,-0.872 -0.106,-0.056 -0.465,-0.187 -0.503,-0.45 0.311,-0.039 0.655,-0.129 0.847,-0.413 0.27,0.357 0.639,0.678 1.101,0.718 0.66,0.101 1.229,-0.24 1.613,-0.758 0.252,0.258 0.55,0.301 0.8,0.477 -0.174,0.316 -0.518,0.39 -0.881,0.364 L 0.727,-0.69 C 0.601,-0.375 0.26,-0.17 0,0"
           id="path3211"
           style="fill:#000000;fill-opacity:1;fill-rule:nonzero;stroke:none" />
      </g>
      <g
         transform="matrix(7.4359594,0,0,-6.7588529,487.27989,497.87468)"
         id="g3213"
         style="fill:#000000">
        <path
           d="M 0,0 C 0.293,0.636 0.848,1.2 1.337,1.749 0.978,1.889 0.533,1.898 0.217,1.707 -0.317,1.356 -0.445,0.734 -0.393,0.107 l -0.77,0.165 c 0.088,0.244 0.175,0.473 0.181,0.769 C -1.078,1.158 -1.157,1.325 -1.337,1.344 -1.583,1.399 -1.831,1.338 -1.984,1.128 -2.185,0.951 -2.043,0.668 -2.145,0.489 -2.375,0.527 -2.622,0.499 -2.834,0.603 -2.728,0.979 -2.736,1.374 -3.009,1.676 -3.27,1.78 -3.48,1.965 -3.793,1.939 -4.091,1.88 -4.424,1.722 -4.578,1.429 -4.697,1.218 -4.67,0.937 -4.642,0.723 -4.922,0.712 -5.155,0.569 -5.434,0.64 c 0.07,0.147 0.007,0.313 0.01,0.461 C -5.518,1.334 -5.679,1.502 -5.925,1.539 -6.106,1.527 -6.289,1.449 -6.391,1.302 -6.528,1.042 -6.502,0.712 -6.342,0.479 -6.525,0.367 -6.74,0.306 -6.921,0.309 c 0.057,0.362 -0.085,0.694 -0.16,1.024 -0.254,0.417 -0.762,0.543 -1.257,0.471 0.492,-0.833 0.968,-1.699 1.277,-2.644 1.99,0.683 4.622,0.661 6.682,0.058 C -0.241,-0.522 -0.137,-0.244 0,0"
           id="path3215"
           style="fill:#000000;fill-opacity:1;fill-rule:nonzero;stroke:none" />
      </g>
      <g
         transform="matrix(7.4359594,0,0,-6.7588529,481.06269,512.88542)"
         id="g3217"
         style="fill:#000000">
        <path
           d="M 0,0 C 0.088,0.262 0.242,0.538 0.198,0.819 -1.699,1.385 -4.213,1.553 -6.071,0.851 -5.977,0.619 -6.034,0.291 -5.889,0.123 -4.052,0.612 -1.815,0.565 0,0"
           id="path3219"
           style="fill:#000000;fill-opacity:1;fill-rule:nonzero;stroke:none" />
      </g>
      <g
         transform="matrix(7.4359594,0,0,-6.7588529,480.63735,520.6608)"
         id="g3221"
         style="fill:#000000">
        <path
           d="M 0,0 C 0.102,0.162 -0.009,0.362 -0.138,0.463 -1.691,1.006 -3.729,1.082 -5.35,0.688 -5.467,0.625 -5.65,0.53 -5.686,0.382 -5.722,0.219 -5.66,0.036 -5.497,-0.049 -4.226,-0.636 -2.578,-0.522 -1.144,-0.404 -0.732,-0.363 -0.271,-0.356 0,0"
           id="path3223"
           style="fill:#000000;fill-opacity:1;fill-rule:nonzero;stroke:none" />
      </g>
      <g
         transform="matrix(7.4359594,0,0,-6.7588529,303.92029,485.7101)"
         id="g3225"
         style="fill:#000000">
        <path
           d="M 0,0 C 0.221,0.341 0.606,0.629 1.018,0.687 1.729,0.82 2.297,0.462 2.715,-0.024 L 3.164,0.181 C 3.297,0.26 3.495,0.273 3.515,0.453 3.307,0.754 2.963,0.81 2.617,0.817 2.556,1.016 2.527,1.214 2.382,1.382 2.095,1.783 1.671,2.006 1.177,2 0.798,1.958 0.433,1.818 0.245,1.46 0.043,1.267 0.131,0.771 -0.229,0.828 -0.477,0.767 -0.842,0.66 -0.864,0.364 -0.518,0.389 -0.243,0.186 0,0"
           id="path3227"
           style="fill:#000000;fill-opacity:1;fill-rule:nonzero;stroke:none" />
      </g>
      <g
         transform="matrix(7.4359594,0,0,-6.7588529,351.52381,485.6148)"
         id="g3229"
         style="fill:#000000">
        <path
           d="m 0,0 c -0.391,0.189 -0.918,0.134 -1.252,-0.089 -0.486,-0.385 -0.498,-0.96 -0.51,-1.553 -0.246,0.038 -0.491,0.126 -0.72,0.18 0.136,0.211 0.175,0.507 0.131,0.771 -0.112,0.15 -0.289,0.335 -0.503,0.323 -0.199,-0.045 -0.414,-0.107 -0.517,-0.302 -0.102,-0.162 -0.189,-0.391 -0.094,-0.574 -0.215,-0.028 -0.511,-0.006 -0.706,0.081 0.07,0.212 0.11,0.541 -0.017,0.757 C -4.313,-0.074 -4.689,0.065 -5,0.138 -5.297,0.094 -5.594,0.068 -5.796,-0.191 -5.966,-0.418 -6.105,-0.777 -5.98,-1.076 -6.244,-1.12 -6.509,-1.213 -6.788,-1.191 c 0.004,0.23 0.06,0.509 -0.101,0.694 -0.145,0.118 -0.307,0.253 -0.522,0.208 -0.166,-0.063 -0.35,-0.19 -0.403,-0.354 -0.12,-0.26 0.022,-0.543 0.083,-0.742 -0.197,-0.012 -0.349,-0.206 -0.562,-0.136 0.024,0.345 0.032,0.723 -0.16,1.007 -0.254,0.433 -0.779,0.526 -1.258,0.421 0.559,-0.802 0.952,-1.698 1.311,-2.594 2.006,0.682 4.64,0.742 6.685,0.139 C -1.349,-1.568 -0.789,-0.74 0,0"
           id="path3231"
           style="fill:#000000;fill-opacity:1;fill-rule:nonzero;stroke:none" />
      </g>
      <g
         transform="matrix(7.4359594,0,0,-6.7588529,291.07541,506.8207)"
         id="g3233"
         style="fill:#000000">
        <path
           d="m 0,0 -0.117,-0.112 0.183,-0.696 c 1.821,0.522 4.125,0.523 5.939,-0.026 0.055,0.263 0.209,0.539 0.149,0.804 C 4.274,0.585 1.872,0.586 0,0"
           id="path3235"
           style="fill:#000000;fill-opacity:1;fill-rule:nonzero;stroke:none" />
      </g>
      <g
         transform="matrix(7.4359594,0,0,-6.7588529,335.58632,518.78792)"
         id="g3237"
         style="fill:#000000">
        <path
           d="M 0,0 C -0.11,0.249 -0.405,0.321 -0.649,0.408 -1.83,0.63 -3.176,0.757 -4.365,0.568 -4.862,0.414 -5.692,0.481 -5.761,-0.077 c 0.093,-0.282 0.387,-0.354 0.616,-0.457 1.557,-0.28 3.366,-0.35 4.84,0.096 C -0.139,-0.359 0.013,-0.198 0,0"
           id="path3239"
           style="fill:#000000;fill-opacity:1;fill-rule:nonzero;stroke:none" />
      </g>
      <g
         transform="matrix(7.4359594,0,0,-6.7588529,387.21047,553.44732)"
         id="g3241"
         style="fill:#000000">
        <path
           d="M 0,0 C 0.63,0.218 1.06,-0.079 1.48,-0.467 1.755,-1.049 1.803,-0.762 2.359,-0.543 2.218,-0.178 1.657,0.147 1.494,0.191 1.336,0.54 1.281,0.648 1.088,0.899 0.734,1.236 0.437,1.226 0.026,1.218 -0.584,1.181 -0.844,0.544 -0.986,0.054 -1.187,-0.123 -1.502,-0.232 -1.589,-0.46 l 0.52,-0.323 C -0.799,-0.443 -0.43,-0.122 0,0"
           id="path3243"
           style="fill:#000000;fill-opacity:1;fill-rule:nonzero;stroke:none" />
      </g>
      <g
         transform="matrix(7.4359594,0,0,-6.7588529,426.88354,562.98609)"
         id="g3245"
         style="fill:#000000">
        <path
           d="M 0,0 C 0.12,0.227 0.437,0.435 0.507,0.631 0.179,0.67 -0.166,0.694 -0.449,0.568 -1.158,0.469 -1.356,-0.301 -1.483,-0.891 l -0.753,0.181 c 0.022,0.295 0.012,0.592 -0.198,0.794 -0.162,0.118 -0.408,0.156 -0.607,0.095 -0.282,-0.142 -0.338,-0.437 -0.458,-0.698 -0.213,0.053 -0.495,-0.039 -0.69,0.08 0.057,0.328 0.047,0.69 -0.112,0.957 -0.193,0.168 -0.355,0.32 -0.618,0.326 C -5.199,0.833 -5.463,0.773 -5.65,0.546 -5.836,0.303 -5.925,-0.008 -5.865,-0.338 -5.984,-0.5 -6.279,-0.428 -6.493,-0.457 -6.72,-0.255 -6.547,0.104 -6.84,0.291 -6.969,0.426 -7.232,0.398 -7.398,0.352 -7.565,0.257 -7.716,0.096 -7.785,-0.084 c -0.103,-0.162 0.023,-0.445 -0.111,-0.541 -1.017,-0.637 -0.254,0.837 -0.83,1.219 -0.107,0.373 -0.968,0.522 -1.382,0.399 0.592,-0.819 1.091,-1.709 1.302,-2.668 l 0.148,-0.003 c 2.372,0.904 5.39,0.446 7.765,-0.13 C -0.601,-1.205 -0.423,-0.534 0,0"
           id="path3247"
           style="fill:#000000;fill-opacity:1;fill-rule:nonzero;stroke:none" />
      </g>
      <g
         transform="matrix(7.4359594,0,0,-6.7588529,417.93734,579.49932)"
         id="g3249"
         style="fill:#000000">
        <path
           d="m 0,0 c -2.226,0.589 -4.97,0.779 -7.174,0.051 -0.412,-0.04 -0.025,-0.41 -0.062,-0.624 2.122,0.779 4.831,0.475 7.026,0.001 L 0,0 z"
           id="path3251"
           style="fill:#000000;fill-opacity:1;fill-rule:nonzero;stroke:none" />
      </g>
      <g
         transform="matrix(7.4359594,0,0,-6.7588529,413.16048,590.30875)"
         id="g3253"
         style="fill:#000000">
        <path
           d="m 0,0 c 0.069,0.13 0.056,0.328 -0.09,0.397 -0.407,0.238 -0.882,0.331 -1.375,0.358 -1.53,0.048 -3.22,0.248 -4.596,-0.201 -0.166,-0.094 -0.383,-0.222 -0.306,-0.47 0.323,-0.32 0.784,-0.313 1.209,-0.42 1.364,-0.095 2.812,-0.108 4.163,-0.038 C -0.632,-0.316 -0.253,-0.291 0,0"
           id="path3255"
           style="fill:#000000;fill-opacity:1;fill-rule:nonzero;stroke:none" />
      </g>
      <g
         transform="matrix(7.4359594,0,0,-6.7588529,295.05588,427.66507)"
         id="g3257"
         style="fill:#000000">
        <path
           d="M 0,0 C 0.167,0.178 0.205,0.457 0.142,0.689 0.047,0.904 -0.182,0.974 -0.396,0.994 -0.594,0.947 -0.794,0.802 -0.846,0.589 -0.9,0.327 -0.838,0.079 -0.61,-0.056 -0.414,-0.158 -0.167,-0.146 0,0"
           id="path3259"
           style="fill:#000000;fill-opacity:1;fill-rule:nonzero;stroke:none" />
      </g>
      <g
         transform="matrix(7.4359594,0,0,-6.7588529,276.40352,437.85201)"
         id="g3261"
         style="fill:#000000">
        <path
           d="M 0,0 C 0.476,-0.106 0.907,0.134 1.192,0.458 1.461,0.8 1.469,1.326 1.294,1.724 1.167,1.989 0.875,2.257 0.58,2.327 0.088,2.483 -0.425,2.277 -0.743,1.904 -0.978,1.628 -0.952,1.2 -0.925,0.821 -0.783,0.424 -0.377,0.105 0,0"
           id="path3263"
           style="fill:#000000;fill-opacity:1;fill-rule:nonzero;stroke:none" />
      </g>
      <g
         transform="matrix(7.4359594,0,0,-6.7588529,249.8393,445.70309)"
         id="g3265"
         style="fill:#000000">
        <path
           d="m 0,0 c -0.411,-1.03 0.481,-1.85 0.647,-2.774 0.464,1.193 0.975,2.37 1.602,3.512 C 2.354,1.082 2.277,1.462 2.002,1.729 1.84,1.913 1.561,1.934 1.298,1.954 1.133,1.94 1,1.86 0.882,1.714 0.531,1.308 0.652,0.632 0.776,0.185 0.48,0.174 0.185,0.244 0,0"
           id="path3267"
           style="fill:#000000;fill-opacity:1;fill-rule:nonzero;stroke:none" />
      </g>
      <g
         transform="matrix(7.4359594,0,0,-6.7588529,262.8433,465.01787)"
         id="g3269"
         style="fill:#000000">
        <path
           d="M 0,0 C 0.613,0.303 1.532,0.157 1.825,0.926 1.944,1.22 1.701,1.454 1.656,1.702 2.182,1.677 2.663,1.933 2.884,2.407 2.889,2.703 2.927,3.048 2.65,3.233 2.328,3.616 1.669,3.577 1.319,3.303 0.447,2.247 -0.001,1.004 -0.432,-0.24 L 0,0 z"
           id="path3271"
           style="fill:#000000;fill-opacity:1;fill-rule:nonzero;stroke:none" />
      </g>
      <g
         transform="matrix(7.4359594,0,0,-6.7588529,244.15971,462.74824)"
         id="g3273"
         style="fill:#000000">
        <path
           d="m 0,0 c -0.101,-0.147 -0.17,-0.343 -0.09,-0.509 0.08,-0.149 0.159,-0.315 0.356,-0.367 0.229,-0.086 0.412,0.059 0.595,0.171 0.151,0.195 0.156,0.491 0.011,0.691 C 0.663,0.269 0.201,0.243 0,0"
           id="path3275"
           style="fill:#000000;fill-opacity:1;fill-rule:nonzero;stroke:none" />
      </g>
      <g
         transform="matrix(7.4359594,0,0,-6.7588529,271.27791,472.47694)"
         id="g3277"
         style="fill:#000000">
        <path
           d="m 0,0 c 0.068,0.164 0.138,0.409 0.025,0.576 -0.128,0.215 -0.406,0.335 -0.67,0.29 -0.248,-0.095 -0.334,-0.324 -0.37,-0.57 0.028,-0.248 0.19,-0.431 0.436,-0.501 C -0.333,-0.258 -0.134,-0.163 0,0"
           id="path3279"
           style="fill:#000000;fill-opacity:1;fill-rule:nonzero;stroke:none" />
      </g>
      <g
         transform="matrix(7.4359594,0,0,-6.7588529,245.45282,472.99872)"
         id="g3281"
         style="fill:#000000">
        <path
           d="m 0,0 c -0.237,-0.408 -0.344,-0.966 -0.171,-1.429 0.206,-0.513 0.71,-0.883 1.27,-0.908 0.558,-0.042 1.024,0.263 1.343,0.67 0.221,0.44 0.296,1.048 0.04,1.48 C 2.273,0.162 1.964,0.397 1.62,0.517 1.014,0.692 0.402,0.487 0,0"
           id="path3283"
           style="fill:#000000;fill-opacity:1;fill-rule:nonzero;stroke:none" />
      </g>
      <g
         transform="matrix(7.4359594,0,0,-6.7588529,258.87176,517.78694)"
         id="g3285"
         style="fill:#000000">
        <path
           d="M 0,0 C 0.242,0.753 1.478,0.881 1.263,1.823 1.216,2.021 1.021,2.139 0.875,2.256 0.876,2.372 0.992,2.42 1.076,2.517 1.278,2.777 1.449,3.219 1.24,3.551 1.095,3.735 0.934,3.935 0.705,4.004 0.344,4.108 0.029,3.949 -0.189,3.672 -0.719,2.397 -0.233,0.859 -0.155,-0.426 L 0,0 z"
           id="path3287"
           style="fill:#000000;fill-opacity:1;fill-rule:nonzero;stroke:none" />
      </g>
      <g
         transform="matrix(7.4359594,0,0,-6.7588529,240.01119,504.61866)"
         id="g3289"
         style="fill:#000000">
        <path
           d="M 0,0 C -0.513,-1.259 1.127,-1.565 1.655,-2.511 1.661,-2.132 1.62,-1.621 1.511,-1.225 1.346,-0.219 1.595,0.946 1.114,1.81 0.919,1.944 0.708,2.095 0.427,2.067 0.229,1.988 -0.02,1.893 -0.155,1.681 -0.339,1.453 -0.296,1.091 -0.201,0.826 -0.238,0.531 0.613,0.271 0,0"
           id="path3291"
           style="fill:#000000;fill-opacity:1;fill-rule:nonzero;stroke:none" />
      </g>
      <g
         transform="matrix(7.4359594,0,0,-6.7588529,265.72028,525.00201)"
         id="g3293"
         style="fill:#000000">
        <path
           d="M 0,0 C 0.149,0.047 0.331,0.126 0.416,0.289 0.517,0.469 0.488,0.716 0.376,0.866 0.231,1.082 -0.064,1.185 -0.311,1.123 -0.593,0.996 -0.631,0.684 -0.619,0.388 -0.508,0.139 -0.263,0.004 0,0"
           id="path3295"
           style="fill:#000000;fill-opacity:1;fill-rule:nonzero;stroke:none" />
      </g>
      <g
         transform="matrix(7.4359594,0,0,-6.7588529,243.88012,528.47268)"
         id="g3297"
         style="fill:#000000">
        <path
           d="M 0,0 C 0.179,-0.118 0.376,-0.154 0.575,-0.058 0.808,0.069 0.878,0.365 0.816,0.629 0.752,0.745 0.639,0.895 0.508,0.93 0.345,0.982 0.179,0.935 0.031,0.905 -0.086,0.791 -0.22,0.645 -0.223,0.464 -0.192,0.299 -0.179,0.101 0,0"
           id="path3299"
           style="fill:#000000;fill-opacity:1;fill-rule:nonzero;stroke:none" />
      </g>
      <g
         transform="matrix(7.4359594,0,0,-6.7588529,259.02271,544.4817)"
         id="g3301"
         style="fill:#000000">
        <path
           d="M 0,0 C 0.559,-0.025 1.107,0.296 1.362,0.785 1.565,1.177 1.492,1.737 1.3,2.119 1.14,2.401 0.848,2.685 0.537,2.756 -0.004,2.929 -0.582,2.757 -0.95,2.368 -1.334,2.012 -1.41,1.355 -1.237,0.875 -1.031,0.345 -0.525,0.074 0,0"
           id="path3303"
           style="fill:#000000;fill-opacity:1;fill-rule:nonzero;stroke:none" />
      </g>
      <g
         transform="matrix(7.4359594,0,0,-6.7588529,284.65669,554.96941)"
         id="g3305"
         style="fill:#000000">
        <path
           d="m 0,0 c -0.111,0.281 -0.374,0.286 -0.585,0.437 0.136,0.294 0.126,0.739 -0.017,1.037 -0.29,0.399 -0.966,0.344 -1.234,-0.013 -0.201,-0.195 -0.206,-0.524 -0.161,-0.787 0.411,-1.109 0.936,-2.22 1.778,-3.139 C -0.321,-1.591 0.201,-0.842 0,0"
           id="path3307"
           style="fill:#000000;fill-opacity:1;fill-rule:nonzero;stroke:none" />
      </g>
      <g
         transform="matrix(7.4359594,0,0,-6.7588529,258.55647,564.27027)"
         id="g3309"
         style="fill:#000000">
        <path
           d="M 0,0 C -0.102,-0.212 -0.023,-0.461 0.138,-0.628 0.905,-1.084 1.892,-1.067 2.676,-1.458 2.289,-0.941 1.886,-0.442 1.598,0.139 1.181,0.771 1.08,1.694 0.328,2.052 0.051,2.187 -0.215,2.011 -0.447,1.916 -0.665,1.672 -0.883,1.379 -0.724,1.048 -0.516,0.666 -0.158,0.381 0.285,0.341 0.217,0.177 0.036,0.164 0,0"
           id="path3311"
           style="fill:#000000;fill-opacity:1;fill-rule:nonzero;stroke:none" />
      </g>
      <g
         transform="matrix(7.4359594,0,0,-6.7588529,289.58376,574.38895)"
         id="g3313"
         style="fill:#000000">
        <path
           d="M 0,0 C 0.212,-0.086 0.46,-0.057 0.627,0.105 0.745,0.268 0.814,0.497 0.735,0.696 0.591,0.961 0.247,1.099 -0.018,0.987 -0.183,0.891 -0.35,0.795 -0.336,0.581 -0.341,0.318 -0.179,0.134 0,0"
           id="path3315"
           style="fill:#000000;fill-opacity:1;fill-rule:nonzero;stroke:none" />
      </g>
      <g
         transform="matrix(7.4359594,0,0,-6.7588529,277.91079,584.23187)"
         id="g3317"
         style="fill:#000000">
        <path
           d="M 0,0 C 0.23,-0.053 0.414,0.125 0.531,0.288 0.584,0.501 0.621,0.796 0.426,0.964 0.28,1.065 0.133,1.15 -0.065,1.12 -0.23,1.09 -0.363,0.977 -0.48,0.88 -0.548,0.733 -0.634,0.52 -0.521,0.387 -0.425,0.188 -0.23,0.004 0,0"
           id="path3319"
           style="fill:#000000;fill-opacity:1;fill-rule:nonzero;stroke:none" />
      </g>
      <g
         transform="matrix(7.4359594,0,0,-6.7588529,297.54321,595.18932)"
         id="g3321"
         style="fill:#000000">
        <path
           d="M 0,0 C 0.348,0.175 0.699,0.483 0.82,0.892 0.875,1.237 0.849,1.649 0.639,1.948 0.286,2.48 -0.419,2.672 -0.998,2.418 -1.412,2.277 -1.65,1.819 -1.755,1.426 -1.827,1.016 -1.651,0.668 -1.442,0.352 -1.087,-0.065 -0.545,-0.123 0,0"
           id="path3323"
           style="fill:#000000;fill-opacity:1;fill-rule:nonzero;stroke:none" />
      </g>
      <g
         transform="matrix(7.4359594,0,0,-6.7588529,322.18598,599.54337)"
         id="g3325"
         style="fill:#000000">
        <path
           d="M 0,0 C 0.57,-0.355 1.108,-0.693 1.647,-0.98 1.196,-0.348 1.374,0.521 0.94,1.154 0.681,1.437 0.336,1.525 -0.042,1.514 -0.17,1.747 -0.183,2.01 -0.36,2.227 -0.536,2.559 -0.862,2.729 -1.258,2.669 -1.49,2.574 -1.723,2.38 -1.793,2.151 -2.058,1.019 -0.749,0.489 0,0"
           id="path3327"
           style="fill:#000000;fill-opacity:1;fill-rule:nonzero;stroke:none" />
      </g>
      <g
         transform="matrix(7.4359594,0,0,-6.7588529,312.6449,613.41997)"
         id="g3329"
         style="fill:#000000">
        <path
           d="M 0,0 C 0.953,-0.114 1.671,0.582 2.51,0.569 2.087,0.839 1.532,1.128 1.043,1.448 0.309,1.854 -0.323,2.489 -1.21,2.569 -1.54,2.525 -1.79,2.299 -1.976,2.022 -2.044,1.825 -2.099,1.497 -1.937,1.314 -1.648,0.898 -1.071,0.921 -0.611,0.898 -0.567,0.519 -0.376,0.137 0,0"
           id="path3331"
           style="fill:#000000;fill-opacity:1;fill-rule:nonzero;stroke:none" />
      </g>
      <g
         transform="matrix(7.4359594,0,0,-6.7588529,344.71396,605.76152)"
         id="g3333"
         style="fill:#000000">
        <path
           d="M 0,0 C 0.117,0.146 0.121,0.36 0.091,0.558 -0.003,0.856 -0.297,0.976 -0.594,0.98 -0.759,0.934 -0.924,0.87 -1.009,0.707 -1.094,0.527 -1.131,0.298 -1.068,0.116 c 0.08,-0.15 0.226,-0.267 0.374,-0.335 C -0.416,-0.322 -0.184,-0.195 0,0"
           id="path3335"
           style="fill:#000000;fill-opacity:1;fill-rule:nonzero;stroke:none" />
      </g>
      <g
         transform="matrix(7.4359594,0,0,-6.7588529,344.47006,619.88144)"
         id="g3337"
         style="fill:#000000">
        <path
           d="M 0,0 C 0.26,-0.218 0.654,-0.29 0.984,-0.18 1.266,-0.069 1.533,0.157 1.669,0.451 1.839,0.778 1.779,1.173 1.603,1.489 1.346,1.888 0.856,2.142 0.377,2.002 -0.004,1.876 -0.32,1.618 -0.425,1.225 -0.548,0.733 -0.391,0.253 0,0"
           id="path3339"
           style="fill:#000000;fill-opacity:1;fill-rule:nonzero;stroke:none" />
      </g>
      <g
         transform="matrix(7.4359594,0,0,-6.7588529,328.27454,615.31178)"
         id="g3341"
         style="fill:#000000">
        <path
           d="M 0,0 C -0.036,-0.23 0.092,-0.463 0.27,-0.63 0.451,-0.649 0.613,-0.783 0.796,-0.671 0.994,-0.657 1.128,-0.462 1.18,-0.282 1.25,-0.036 1.171,0.195 1.01,0.363 0.847,0.496 0.65,0.516 0.42,0.52 0.221,0.44 -0.013,0.23 0,0"
           id="path3343"
           style="fill:#000000;fill-opacity:1;fill-rule:nonzero;stroke:none" />
      </g>
      <g
         transform="matrix(7.4359594,0,0,-6.7588529,393.32506,618.48506)"
         id="g3345"
         style="fill:#000000">
        <path
           d="M 0,0 C 0.873,0.786 1.519,1.79 2.049,2.747 1.802,2.769 1.572,2.741 1.389,2.662 0.943,1.818 0.352,1.076 -0.289,0.334 L -0.291,0.219 C -0.228,0.12 -0.097,0.067 0,0"
           id="path3347"
           style="fill:#000000;fill-opacity:1;fill-rule:nonzero;stroke:none" />
      </g>
      <g
         transform="matrix(7.4359594,0,0,-6.7588529,375.07201,600.37336)"
         id="g3349"
         style="fill:#000000">
        <path
           d="M 0,0 -0.607,0.079 C -0.14,-1.166 0.674,-2.367 1.625,-3.341 2.755,-4.369 3.972,-5.234 5.463,-5.529 3.147,-4.509 0.855,-2.388 0,0"
           id="path3351"
           style="fill:#000000;fill-opacity:1;fill-rule:nonzero;stroke:none" />
      </g>
      <g
         transform="matrix(7.4359594,0,0,-6.7588529,393.40908,601.05533)"
         id="g3353"
         style="fill:#000000">
        <path
           d="m 0,0 -1.381,0.029 -0.02,-0.938 c 0.174,-0.316 0.48,-0.635 0.722,-0.887 l 0.745,1.005 C 0.022,-0.527 0.11,-0.249 0,0"
           id="path3355"
           style="fill:#000000;fill-opacity:1;fill-rule:nonzero;stroke:none" />
      </g>
      <g
         transform="matrix(7.4359594,0,0,-6.7588529,382.80243,623.8455)"
         id="g3357"
         style="fill:#000000">
        <path
           d="m 0,0 c -1.089,-0.932 -2.372,-1.695 -3.631,-2.096 1.485,0.231 2.831,0.812 4.003,1.791 C 0.259,-0.203 0.163,-0.053 0,0"
           id="path3359"
           style="fill:#000000;fill-opacity:1;fill-rule:nonzero;stroke:none" />
      </g>
      <g
         transform="matrix(7.4359594,0,0,-6.7588529,398.16364,644.41269)"
         id="g3361"
         style="fill:#000000">
        <path
           d="M 0,0 C -0.768,0.247 -0.619,1.082 -0.638,1.741 -0.881,1.911 -1.125,2.08 -1.369,2.217 L -1.971,1.753 -1.989,0.914 C -2.079,0.521 -2.398,0.215 -2.699,0.007 -1.901,-0.421 -0.732,-0.363 0,0"
           id="path3363"
           style="fill:#000000;fill-opacity:1;fill-rule:nonzero;stroke:none" />
      </g>
      <g
         transform="matrix(7.4359594,0,0,-6.7588529,481.00543,427.52313)"
         id="g3365"
         style="fill:#000000">
        <path
           d="M 0,0 C -0.167,0.178 -0.205,0.457 -0.143,0.689 -0.047,0.904 0.182,0.974 0.396,0.994 0.594,0.947 0.794,0.802 0.846,0.589 0.899,0.327 0.838,0.079 0.61,-0.056 0.414,-0.158 0.166,-0.146 0,0"
           id="path3367"
           style="fill:#000000;fill-opacity:1;fill-rule:nonzero;stroke:none" />
      </g>
      <g
         transform="matrix(7.4359594,0,0,-6.7588529,499.65705,437.71075)"
         id="g3369"
         style="fill:#000000">
        <path
           d="M 0,0 C -0.476,-0.106 -0.907,0.134 -1.192,0.458 -1.461,0.8 -1.469,1.326 -1.294,1.724 -1.167,1.989 -0.875,2.257 -0.58,2.327 -0.089,2.483 0.425,2.277 0.743,1.904 0.978,1.628 0.952,1.2 0.925,0.821 0.783,0.424 0.376,0.105 0,0"
           id="path3371"
           style="fill:#000000;fill-opacity:1;fill-rule:nonzero;stroke:none" />
      </g>
      <g
         transform="matrix(7.4359594,0,0,-6.7588529,526.21904,445.56251)"
         id="g3373"
         style="fill:#000000">
        <path
           d="m 0,0 c 0.411,-1.03 -0.481,-1.85 -0.648,-2.774 -0.463,1.193 -0.974,2.37 -1.601,3.512 -0.104,0.344 -0.028,0.724 0.247,0.991 0.162,0.184 0.441,0.205 0.704,0.225 C -1.133,1.94 -1,1.86 -0.882,1.714 -0.531,1.308 -0.652,0.632 -0.776,0.185 -0.48,0.174 -0.185,0.244 0,0"
           id="path3375"
           style="fill:#000000;fill-opacity:1;fill-rule:nonzero;stroke:none" />
      </g>
      <g
         transform="matrix(7.4359594,0,0,-6.7588529,513.21503,464.87593)"
         id="g3377"
         style="fill:#000000">
        <path
           d="m 0,0 c -0.613,0.303 -1.532,0.157 -1.825,0.926 -0.119,0.294 0.124,0.528 0.169,0.776 -0.526,-0.025 -1.007,0.231 -1.228,0.704 -0.005,0.296 -0.043,0.642 0.234,0.827 0.323,0.383 0.982,0.344 1.331,0.07 0.872,-1.056 1.32,-2.299 1.751,-3.543 L 0,0 z"
           id="path3379"
           style="fill:#000000;fill-opacity:1;fill-rule:nonzero;stroke:none" />
      </g>
      <g
         transform="matrix(7.4359594,0,0,-6.7588529,531.89862,462.60698)"
         id="g3381"
         style="fill:#000000">
        <path
           d="m 0,0 c 0.101,-0.146 0.17,-0.343 0.09,-0.509 -0.08,-0.149 -0.159,-0.315 -0.356,-0.367 -0.229,-0.086 -0.412,0.059 -0.595,0.171 -0.151,0.195 -0.156,0.491 -0.011,0.691 C -0.662,0.269 -0.201,0.244 0,0"
           id="path3383"
           style="fill:#000000;fill-opacity:1;fill-rule:nonzero;stroke:none" />
      </g>
      <g
         transform="matrix(7.4359594,0,0,-6.7588529,504.78042,472.33635)"
         id="g3385"
         style="fill:#000000">
        <path
           d="M 0,0 C -0.068,0.163 -0.138,0.409 -0.025,0.575 0.103,0.791 0.381,0.911 0.645,0.866 0.893,0.771 0.979,0.542 1.016,0.296 0.987,0.048 0.825,-0.135 0.579,-0.205 0.333,-0.258 0.134,-0.163 0,0"
           id="path3387"
           style="fill:#000000;fill-opacity:1;fill-rule:nonzero;stroke:none" />
      </g>
      <g
         transform="matrix(7.4359594,0,0,-6.7588529,530.60848,472.85746)"
         id="g3389"
         style="fill:#000000">
        <path
           d="m 0,0 c 0.237,-0.408 0.344,-0.965 0.171,-1.429 -0.206,-0.513 -0.711,-0.883 -1.27,-0.908 -0.558,-0.042 -1.024,0.264 -1.343,0.67 -0.221,0.44 -0.296,1.048 -0.04,1.48 0.209,0.349 0.517,0.584 0.861,0.705 C -1.015,0.692 -0.403,0.487 0,0"
           id="path3391"
           style="fill:#000000;fill-opacity:1;fill-rule:nonzero;stroke:none" />
      </g>
      <g
         transform="matrix(7.4359594,0,0,-6.7588529,517.18658,517.64568)"
         id="g3393"
         style="fill:#000000">
        <path
           d="m 0,0 c -0.242,0.753 -1.478,0.882 -1.263,1.823 0.047,0.198 0.242,0.316 0.388,0.434 -0.001,0.115 -0.117,0.162 -0.201,0.26 -0.202,0.26 -0.373,0.702 -0.164,1.034 0.145,0.183 0.307,0.384 0.535,0.453 C -0.344,4.108 -0.029,3.949 0.189,3.672 0.719,2.397 0.233,0.859 0.155,-0.426 L 0,0 z"
           id="path3395"
           style="fill:#000000;fill-opacity:1;fill-rule:nonzero;stroke:none" />
      </g>
      <g
         transform="matrix(7.4359594,0,0,-6.7588529,536.04937,504.47538)"
         id="g3397"
         style="fill:#000000">
        <path
           d="m 0,0 c 0.513,-1.259 -1.127,-1.565 -1.656,-2.511 -0.005,0.378 0.036,0.889 0.145,1.286 0.165,1.006 -0.084,2.171 0.396,3.034 0.196,0.134 0.407,0.286 0.688,0.258 C -0.229,1.987 0.02,1.893 0.154,1.681 0.339,1.453 0.295,1.091 0.201,0.826 0.238,0.53 -0.613,0.27 0,0"
           id="path3399"
           style="fill:#000000;fill-opacity:1;fill-rule:nonzero;stroke:none" />
      </g>
      <g
         transform="matrix(7.4359594,0,0,-6.7588529,510.33806,524.86075)"
         id="g3401"
         style="fill:#000000">
        <path
           d="m 0,0 c -0.149,0.047 -0.331,0.126 -0.416,0.289 -0.101,0.18 -0.072,0.427 0.041,0.577 0.144,0.216 0.439,0.319 0.687,0.257 C 0.593,0.996 0.631,0.684 0.619,0.388 0.508,0.139 0.263,0.004 0,0"
           id="path3403"
           style="fill:#000000;fill-opacity:1;fill-rule:nonzero;stroke:none" />
      </g>
      <g
         transform="matrix(7.4359594,0,0,-6.7588529,532.17821,528.33345)"
         id="g3405"
         style="fill:#000000">
        <path
           d="m 0,0 c -0.179,-0.117 -0.376,-0.154 -0.575,-0.058 -0.233,0.128 -0.303,0.423 -0.241,0.687 0.064,0.116 0.177,0.266 0.308,0.301 0.163,0.052 0.329,0.005 0.477,-0.025 C 0.086,0.792 0.22,0.645 0.223,0.465 0.193,0.299 0.18,0.102 0,0"
           id="path3407"
           style="fill:#000000;fill-opacity:1;fill-rule:nonzero;stroke:none" />
      </g>
      <g
         transform="matrix(7.4359594,0,0,-6.7588529,517.0386,544.34314)"
         id="g3409"
         style="fill:#000000">
        <path
           d="m 0,0 c -0.559,-0.025 -1.107,0.296 -1.362,0.785 -0.204,0.392 -0.13,0.953 0.062,1.334 0.159,0.282 0.451,0.566 0.763,0.637 C 0.003,2.929 0.582,2.757 0.95,2.368 1.334,2.012 1.41,1.355 1.237,0.876 1.031,0.346 0.525,0.074 0,0"
           id="path3411"
           style="fill:#000000;fill-opacity:1;fill-rule:nonzero;stroke:none" />
      </g>
      <g
         transform="matrix(7.4359594,0,0,-6.7588529,491.40164,554.82613)"
         id="g3413"
         style="fill:#000000">
        <path
           d="M 0,0 C 0.111,0.281 0.374,0.286 0.585,0.437 0.449,0.731 0.459,1.175 0.602,1.474 0.892,1.873 1.568,1.818 1.836,1.461 2.037,1.266 2.042,0.937 1.997,0.673 1.586,-0.436 1.061,-1.547 0.219,-2.465 0.321,-1.591 -0.201,-0.843 0,0"
           id="path3415"
           style="fill:#000000;fill-opacity:1;fill-rule:nonzero;stroke:none" />
      </g>
      <g
         transform="matrix(7.4359594,0,0,-6.7588529,517.50186,564.12833)"
         id="g3417"
         style="fill:#000000">
        <path
           d="m 0,0 c 0.102,-0.213 0.023,-0.461 -0.138,-0.628 -0.767,-0.456 -1.754,-0.439 -2.537,-0.83 0.386,0.517 0.789,1.017 1.077,1.597 0.418,0.632 0.518,1.555 1.27,1.912 C -0.051,2.187 0.215,2.011 0.447,1.916 0.665,1.672 0.883,1.379 0.724,1.048 0.516,0.666 0.158,0.381 -0.285,0.341 -0.217,0.177 -0.035,0.164 0,0"
           id="path3419"
           style="fill:#000000;fill-opacity:1;fill-rule:nonzero;stroke:none" />
      </g>
      <g
         transform="matrix(7.4359594,0,0,-6.7588529,486.47458,574.24769)"
         id="g3421"
         style="fill:#000000">
        <path
           d="M 0,0 C -0.212,-0.086 -0.46,-0.057 -0.627,0.105 -0.745,0.268 -0.814,0.497 -0.735,0.696 -0.591,0.961 -0.247,1.098 0.018,0.987 0.184,0.891 0.35,0.795 0.336,0.581 0.341,0.318 0.179,0.134 0,0"
           id="path3423"
           style="fill:#000000;fill-opacity:1;fill-rule:nonzero;stroke:none" />
      </g>
      <g
         transform="matrix(7.4359594,0,0,-6.7588529,498.14755,584.09061)"
         id="g3425"
         style="fill:#000000">
        <path
           d="M 0,0 C -0.229,-0.053 -0.413,0.125 -0.531,0.288 -0.584,0.501 -0.621,0.796 -0.426,0.964 -0.28,1.065 -0.133,1.149 0.065,1.12 0.23,1.09 0.363,0.977 0.48,0.88 0.548,0.733 0.634,0.52 0.521,0.387 0.425,0.188 0.23,0.004 0,0"
           id="path3427"
           style="fill:#000000;fill-opacity:1;fill-rule:nonzero;stroke:none" />
      </g>
      <g
         transform="matrix(7.4359594,0,0,-6.7588529,478.51513,595.04806)"
         id="g3429"
         style="fill:#000000">
        <path
           d="M 0,0 C -0.348,0.175 -0.699,0.482 -0.82,0.892 -0.875,1.237 -0.849,1.648 -0.639,1.948 -0.286,2.48 0.419,2.672 0.998,2.418 1.412,2.276 1.65,1.82 1.755,1.426 1.827,1.016 1.652,0.668 1.443,0.352 1.087,-0.065 0.545,-0.123 0,0"
           id="path3431"
           style="fill:#000000;fill-opacity:1;fill-rule:nonzero;stroke:none" />
      </g>
      <g
         transform="matrix(7.4359594,0,0,-6.7588529,453.87533,599.40279)"
         id="g3433"
         style="fill:#000000">
        <path
           d="m 0,0 c -0.57,-0.355 -1.108,-0.692 -1.647,-0.981 0.451,0.633 0.273,1.502 0.707,2.134 0.259,0.284 0.604,0.372 0.982,0.362 C 0.17,1.747 0.182,2.01 0.36,2.227 0.535,2.559 0.862,2.729 1.258,2.669 1.49,2.574 1.723,2.38 1.793,2.151 2.057,1.02 0.749,0.489 0,0"
           id="path3435"
           style="fill:#000000;fill-opacity:1;fill-rule:nonzero;stroke:none" />
      </g>
      <g
         transform="matrix(7.4359594,0,0,-6.7588529,463.41344,613.27871)"
         id="g3437"
         style="fill:#000000">
        <path
           d="m 0,0 c -0.952,-0.114 -1.671,0.582 -2.51,0.569 0.423,0.27 0.979,0.559 1.467,0.879 C -0.309,1.854 0.323,2.489 1.21,2.569 1.54,2.525 1.791,2.299 1.976,2.022 2.045,1.825 2.099,1.497 1.937,1.314 1.648,0.897 1.071,0.922 0.611,0.897 0.568,0.519 0.376,0.137 0,0"
           id="path3439"
           style="fill:#000000;fill-opacity:1;fill-rule:nonzero;stroke:none" />
      </g>
      <g
         transform="matrix(7.4359594,0,0,-6.7588529,431.34437,605.62026)"
         id="g3441"
         style="fill:#000000">
        <path
           d="M 0,0 C -0.117,0.146 -0.121,0.36 -0.091,0.558 0.004,0.856 0.298,0.976 0.594,0.98 0.759,0.933 0.924,0.87 1.009,0.707 1.095,0.527 1.131,0.298 1.068,0.115 0.988,-0.034 0.842,-0.151 0.694,-0.219 0.417,-0.322 0.184,-0.194 0,0"
           id="path3443"
           style="fill:#000000;fill-opacity:1;fill-rule:nonzero;stroke:none" />
      </g>
      <g
         transform="matrix(7.4359594,0,0,-6.7588529,431.58827,619.74018)"
         id="g3445"
         style="fill:#000000">
        <path
           d="m 0,0 c -0.26,-0.218 -0.653,-0.29 -0.984,-0.18 -0.281,0.111 -0.549,0.337 -0.685,0.631 -0.169,0.327 -0.11,0.723 0.067,1.038 0.257,0.398 0.746,0.653 1.225,0.513 C 0.004,1.876 0.32,1.618 0.425,1.224 0.548,0.733 0.391,0.253 0,0"
           id="path3447"
           style="fill:#000000;fill-opacity:1;fill-rule:nonzero;stroke:none" />
      </g>
      <g
         transform="matrix(7.4359594,0,0,-6.7588529,447.78379,615.17254)"
         id="g3449"
         style="fill:#000000">
        <path
           d="m 0,0 c 0.036,-0.23 -0.091,-0.462 -0.27,-0.629 -0.181,-0.019 -0.343,-0.154 -0.526,-0.041 -0.197,0.013 -0.332,0.208 -0.384,0.389 -0.07,0.245 0.009,0.476 0.17,0.644 0.163,0.134 0.36,0.153 0.59,0.157 C -0.221,0.441 0.013,0.231 0,0"
           id="path3451"
           style="fill:#000000;fill-opacity:1;fill-rule:nonzero;stroke:none" />
      </g>
      <g
         transform="matrix(7.4359594,0,0,-6.7588529,463.12269,386.15557)"
         id="g3453"
         style="fill:#000000">
        <path
           d="m 0,0 c -0.361,-0.073 -0.739,-0.081 -1.087,0.059 -0.968,0.622 -1.999,1.143 -2.997,1.666 l 0.721,0.13 C -2.107,1.602 -1.018,0.67 0,0"
           id="path3455"
           style="fill:#000000;fill-opacity:1;fill-rule:nonzero;stroke:none" />
      </g>
      <g
         transform="matrix(7.4359594,0,0,-6.7588529,438.81603,388.17512)"
         id="g3457"
         style="fill:#000000">
        <path
           d="m 0,0 c -0.732,0.38 -1.449,0.825 -2.132,1.255 0.245,0.022 0.422,0.223 0.703,0.163 0.963,-0.375 1.91,-0.815 2.73,-1.473 C 0.876,-0.163 0.415,-0.172 0,0"
           id="path3459"
           style="fill:#000000;fill-opacity:1;fill-rule:nonzero;stroke:none" />
      </g>
      <g
         transform="matrix(7.4359594,0,0,-6.7588529,433.13421,391.1747)"
         id="g3461"
         style="fill:#000000">
        <path
           d="M 0,0 C -1.145,-0.32 -2.018,0.501 -2.836,1.043 -1.675,1.397 -0.817,0.509 0,0"
           id="path3463"
           style="fill:#000000;fill-opacity:1;fill-rule:nonzero;stroke:none" />
      </g>
      <g
         transform="matrix(7.4359594,0,0,-6.7588529,418.98358,393.00161)"
         id="g3465"
         style="fill:#000000">
        <path
           d="M 0,0 C -0.965,-0.284 -1.769,0.358 -2.421,0.887 -1.425,1.221 -0.734,0.445 0,0"
           id="path3467"
           style="fill:#000000;fill-opacity:1;fill-rule:nonzero;stroke:none" />
      </g>
      <g
         transform="matrix(7.4359594,0,0,-6.7588529,472.67046,391.64579)"
         id="g3469"
         style="fill:#000000">
        <path
           d="M 0,0 C 1.204,-0.946 2.392,-1.859 3.501,-2.955 3.042,-3.014 2.546,-2.925 2.21,-2.603 1.038,-1.64 -0.219,-0.548 -1.438,0.266 -0.928,0.326 -0.385,0.321 0,0"
           id="path3471"
           style="fill:#000000;fill-opacity:1;fill-rule:nonzero;stroke:none" />
      </g>
      <g
         transform="matrix(7.4359594,0,0,-6.7588529,407.18197,396.00728)"
         id="g3473"
         style="fill:#000000">
        <path
           d="M 0,0 C -0.23,-0.021 -0.526,-0.06 -0.742,0.034 -1.023,0.127 -1.177,0.42 -1.151,0.733 -0.751,0.494 -0.384,0.255 0,0"
           id="path3475"
           style="fill:#000000;fill-opacity:1;fill-rule:nonzero;stroke:none" />
      </g>
      <g
         transform="matrix(7.4359594,0,0,-6.7588529,471.84358,403.563)"
         id="g3477"
         style="fill:#000000">
        <path
           d="M 0,0 C -0.328,-0.056 -0.755,-0.098 -1.069,-0.006 -1.868,0.405 -2.688,1.063 -3.39,1.591 -1.969,2.065 -1.081,0.553 0,0"
           id="path3479"
           style="fill:#000000;fill-opacity:1;fill-rule:nonzero;stroke:none" />
      </g>
      <g
         transform="matrix(7.4359594,0,0,-6.7588529,451.65272,403.50217)"
         id="g3481"
         style="fill:#000000">
        <path
           d="M 0,0 -0.296,-0.039 C -1.311,-0.258 -1.972,0.666 -2.69,1.145 l 0.789,0.033 C -1.109,1.079 -0.634,0.398 0,0"
           id="path3483"
           style="fill:#000000;fill-opacity:1;fill-rule:nonzero;stroke:none" />
      </g>
      <g
         transform="matrix(7.4359594,0,0,-6.7588529,421.14372,396.5196)"
         id="g3485"
         style="fill:#000000">
        <path
           d="M 0,0 C 0.722,0.081 1.179,-0.502 1.714,-0.886 0.846,-1.118 0.078,-0.591 -0.543,-0.028 -0.345,-0.057 -0.198,0.012 0,0"
           id="path3487"
           style="fill:#000000;fill-opacity:1;fill-rule:nonzero;stroke:none" />
      </g>
      <g
         transform="matrix(7.4359594,0,0,-6.7588529,404.93333,399.3867)"
         id="g3489"
         style="fill:#000000">
        <path
           d="M 0,0 C 0.67,0.228 1.301,-0.039 1.787,-0.473 1.12,-0.849 0.5,-0.302 0,0"
           id="path3491"
           style="fill:#000000;fill-opacity:1;fill-rule:nonzero;stroke:none" />
      </g>
      <g
         transform="matrix(7.4359594,0,0,-6.7588529,380.88098,495.59897)"
         id="g3493"
         style="fill:#000000">
        <path
           d="m 0,0 c -0.423,0.223 -0.845,0.511 -1.285,0.702 -1.572,-1.185 -2.219,-3.015 -1.998,-4.994 0.184,-1.436 1.172,-2.987 2.593,-3.51 0.007,0.345 0.227,0.62 0.25,0.932 -1.008,0.614 -1.528,1.694 -1.653,2.8 C -2.255,-2.372 -1.37,-0.975 0,0"
           id="path3495"
           style="fill:#000000;fill-opacity:1;fill-rule:nonzero;stroke:none" />
      </g>
      <g
         transform="matrix(7.4359594,0,0,-6.7588529,394.46796,538.01213)"
         id="g3497"
         style="fill:#000000">
        <path
           d="m 0,0 0.041,5.133 c -0.5,0.488 -1.152,0.782 -1.77,1.091 L -1.646,0.018 C -1.148,0.188 -0.507,0.158 0,0"
           id="path3499"
           style="fill:#000000;fill-opacity:1;fill-rule:nonzero;stroke:none" />
      </g>
      <g
         transform="matrix(7.4359594,0,0,-6.7588529,411.47623,472.28431)"
         id="g3501"
         style="fill:#000000">
        <path
           d="m 0,0 c -0.737,-0.498 -1.406,-0.864 -2.207,-1.243 l -0.032,0.033 0.116,10.925 -0.044,2.808 c -0.661,-0.101 -1.322,-0.037 -2,-0.007 l -0.067,-0.031 -0.01,-2.99 0.14,-9.708 0.03,-0.181 c 1.1,-0.403 2.11,-1.053 3.107,-1.669 0.985,0.509 2.022,1.064 2.928,1.74 C 3.456,0.805 4.432,2.42 4.159,4.359 4.05,5.502 3.043,6.367 2.112,6.9 2.348,7.091 2.614,7.201 2.834,7.412 L 2.836,7.478 C 1.743,7.336 0.844,7.866 -0.182,7.789 -0.447,7.762 -0.602,7.517 -0.688,7.304 -0.97,7.276 -1.253,7.266 -1.469,7.105 -1.757,6.863 -1.863,6.552 -1.869,6.204 -1.536,6.313 -1.156,6.322 -0.811,6.215 -0.616,6.063 -0.388,5.859 -0.378,5.578 -0.366,5.364 -0.47,5.2 -0.636,5.072 -0.738,4.957 -1.019,4.996 -0.972,4.814 -0.729,4.577 -0.386,4.422 -0.036,4.546 0.263,4.655 0.485,4.932 0.572,5.228 0.857,5.321 1.098,5.101 1.38,5.045 2.049,4.684 2.398,3.949 2.417,3.223 2.417,1.734 1.156,0.703 0,0 M -0.251,7.184 C -0.158,7.301 -0.07,7.39 0.005,7.417 0.59,7.483 0.869,7.297 1.292,7.163 0.824,6.941 0.237,6.871 -0.251,7.184"
           id="path3503"
           style="fill:#000000;fill-opacity:1;fill-rule:nonzero;stroke:none" />
      </g>
      <g
         transform="matrix(7.4359594,0,0,-6.7588529,370.17915,429.93604)"
         id="g3505"
         style="fill:#000000">
        <path
           d="m 0,0 c 0.284,0.159 0.729,0.066 1.025,-0.023 0.021,0.314 -0.119,0.599 -0.314,0.817 -0.258,0.352 -0.842,0.068 -0.998,0.5 -0.176,0.27 -0.49,0.309 -0.821,0.3 C -1.938,1.38 -2.771,1.148 -3.694,1.167 -3.501,0.93 -3.19,0.794 -2.963,0.59 -3.081,0.494 -3.231,0.447 -3.347,0.366 c -1.205,-0.702 -1.794,-1.962 -1.625,-3.354 0.377,-3.248 3.89,-4.479 6.225,-5.849 1.567,-0.926 3.681,-1.846 4.084,-3.872 0.365,-1.46 -0.031,-3.073 -1.241,-4.022 0.16,-0.286 0.284,-0.586 0.395,-0.886 0.652,0.417 1.361,1.031 1.673,1.75 0.875,1.536 0.608,3.806 -0.305,5.231 -2.042,2.704 -5.386,3.219 -7.838,5.272 -0.796,0.761 -1.437,1.732 -1.13,2.883 0.161,0.674 0.703,1.308 1.401,1.442 0.534,0.253 0.354,-0.453 0.731,-0.577 0.229,-0.104 0.577,-0.145 0.826,-0.05 0.134,0.078 0.285,0.175 0.321,0.356 l -0.181,0.054 c -0.196,0.119 -0.472,0.291 -0.45,0.57 C -0.455,-0.405 -0.235,-0.144 0,0 m -2.129,0.888 c 0.43,0.106 0.877,0.363 1.354,0.252 L -0.576,0.919 C -1.278,0.622 -1.657,0.662 -2.129,0.888"
           id="path3507"
           style="fill:#000000;fill-opacity:1;fill-rule:nonzero;stroke:none" />
      </g>
      <g
         transform="matrix(7.4359594,0,0,-6.7588529,172.39081,475.45827)"
         id="g3509"
         style="fill:#000000">
        <path
           d="m 0,0 0.359,-0.664 c -0.215,-0.113 -0.357,-0.223 -0.425,-0.33 -0.078,-0.112 -0.12,-0.258 -0.127,-0.439 -0.009,-0.222 0.047,-0.408 0.167,-0.56 0.118,-0.151 0.271,-0.23 0.458,-0.238 0.259,-0.01 0.475,0.174 0.648,0.553 l 0.237,0.519 c 0.19,0.424 0.415,0.73 0.673,0.919 0.259,0.189 0.57,0.277 0.934,0.262 C 3.411,0.003 3.808,-0.175 4.113,-0.512 4.421,-0.852 4.565,-1.264 4.546,-1.749 4.528,-2.209 4.377,-2.583 4.093,-2.873 3.809,-3.157 3.418,-3.326 2.921,-3.38 l -0.147,0.817 c 0.313,0.024 0.53,0.08 0.653,0.167 0.235,0.156 0.359,0.391 0.371,0.707 0.01,0.249 -0.066,0.46 -0.226,0.631 C 3.411,-0.887 3.203,-0.796 2.947,-0.786 2.844,-0.782 2.749,-0.793 2.662,-0.818 2.575,-0.843 2.494,-0.885 2.42,-0.942 2.345,-1 2.275,-1.076 2.208,-1.169 2.141,-1.263 2.077,-1.375 2.015,-1.505 L 1.782,-2.008 C 1.447,-2.72 0.984,-3.065 0.394,-3.042 c -0.398,0.016 -0.725,0.181 -0.981,0.495 -0.258,0.314 -0.378,0.698 -0.361,1.151 C -0.924,-0.786 -0.608,-0.32 0,0"
           id="path3511"
           style="fill:#000000;fill-opacity:1;fill-rule:nonzero;stroke:none" />
      </g>
      <g
         transform="matrix(7.4359594,0,0,-6.7588529,176.52145,451.31036)"
         id="g3513"
         style="fill:#000000">
        <path
           d="M 0,0 4.46,-0.911 4.3,-1.693 -0.16,-0.782 -0.404,-1.976 -1.14,-1.826 -0.493,1.341 0.244,1.191 0,0 z"
           id="path3515"
           style="fill:#000000;fill-opacity:1;fill-rule:nonzero;stroke:none" />
      </g>
      <g
         transform="matrix(7.4359594,0,0,-6.7588529,-3690.2131,5905.7782)"
         id="g3517"
         style="fill:#000000">
        <g
           clip-path="url(#clipPath3521)"
           id="g3519"
           style="fill:#000000">
          <g
             transform="translate(522.28,808.8459)"
             id="g3525"
             style="fill:#000000">
            <path
               d="m 0,0 c -0.688,0.29 -1.172,0.791 -1.453,1.504 -0.282,0.71 -0.275,1.417 0.022,2.121 0.294,0.696 0.795,1.188 1.502,1.476 C 0.78,5.391 1.484,5.388 2.182,5.094 2.885,4.797 3.375,4.295 3.652,3.586 3.931,2.875 3.92,2.163 3.62,1.45 3.354,0.82 2.897,0.346 2.248,0.028 1.532,-0.321 0.783,-0.33 0,0 M 0.322,0.74 C 0.861,0.513 1.381,0.507 1.881,0.723 2.381,0.937 2.73,1.28 2.93,1.753 3.145,2.265 3.151,2.772 2.946,3.274 2.736,3.777 2.375,4.137 1.86,4.354 1.34,4.573 0.831,4.583 0.332,4.383 -0.167,4.187 -0.525,3.833 -0.74,3.323 -0.954,2.815 -0.959,2.311 -0.752,1.812 -0.55,1.314 -0.192,0.957 0.322,0.74"
               id="path3527"
               style="fill:#000000;fill-opacity:1;fill-rule:nonzero;stroke:none" />
          </g>
          <g
             transform="translate(525.6795,819.8109)"
             id="g3529"
             style="fill:#000000">
            <path
               d="m 0,0 0.768,-0.554 c -0.585,-0.149 -1.022,-0.424 -1.311,-0.825 -0.319,-0.442 -0.429,-0.929 -0.329,-1.461 0.096,-0.533 0.373,-0.964 0.831,-1.294 0.452,-0.326 0.943,-0.449 1.473,-0.368 0.531,0.08 0.955,0.342 1.274,0.784 0.165,0.228 0.268,0.449 0.309,0.662 0.027,0.116 0.044,0.245 0.049,0.386 0.006,0.141 0.003,0.297 -0.01,0.467 L 3.838,-2.768 C 3.781,-3.292 3.605,-3.758 3.31,-4.167 2.867,-4.782 2.273,-5.151 1.53,-5.276 c -0.746,-0.122 -1.425,0.037 -2.037,0.479 -0.548,0.395 -0.906,0.93 -1.073,1.603 -0.205,0.825 -0.052,1.592 0.459,2.3 C -0.842,-0.508 -0.469,-0.21 0,0"
               id="path3531"
               style="fill:#000000;fill-opacity:1;fill-rule:nonzero;stroke:none" />
          </g>
        </g>
      </g>
      <g
         transform="matrix(7.4359594,0,0,-6.7588529,244.93882,357.97606)"
         id="g3533"
         style="fill:#000000">
        <path
           d="M 0,0 0.113,2.953 0.906,3.669 0.737,0.281 4.471,-0.256 3.676,-0.975 0.678,-0.504 0.666,-0.737 2.137,-2.365 1.545,-2.901 -2.011,1.034 -1.418,1.57 0,0 z"
           id="path3535"
           style="fill:#000000;fill-opacity:1;fill-rule:nonzero;stroke:none" />
      </g>
      <g
         transform="matrix(7.4359594,0,0,-6.7588529,278.70878,333.59347)"
         id="g3537"
         style="fill:#000000">
        <path
           d="M 0,0 1.989,1.135 0.961,2.937 1.654,3.333 4.282,-1.271 3.589,-1.666 2.362,0.482 0.373,-0.654 1.599,-2.802 0.906,-3.198 -1.722,1.406 -1.028,1.801 0,0 z"
           id="path3539"
           style="fill:#000000;fill-opacity:1;fill-rule:nonzero;stroke:none" />
      </g>
      <g
         transform="matrix(7.4359594,0,0,-6.7588529,-3690.2131,5905.7782)"
         id="g3541"
         style="fill:#000000">
        <g
           clip-path="url(#clipPath3545)"
           id="g3543"
           style="fill:#000000">
          <g
             transform="translate(538.1057,826.1862)"
             id="g3549"
             style="fill:#000000">
            <path
               d="M 0,0 C -0.213,0.716 -0.134,1.409 0.238,2.079 0.607,2.748 1.158,3.192 1.892,3.411 2.616,3.627 3.315,3.553 3.987,3.189 4.662,2.826 5.108,2.282 5.324,1.555 5.542,0.824 5.466,0.126 5.095,-0.539 4.723,-1.207 4.166,-1.652 3.424,-1.873 2.767,-2.069 2.11,-2.017 1.452,-1.719 0.727,-1.387 0.243,-0.815 0,0 m 0.775,0.222 c 0.168,-0.562 0.495,-0.968 0.98,-1.218 0.484,-0.251 0.972,-0.303 1.464,-0.156 0.534,0.159 0.93,0.478 1.187,0.957 C 4.661,0.287 4.709,0.797 4.549,1.333 4.388,1.875 4.071,2.276 3.599,2.535 3.129,2.797 2.627,2.848 2.096,2.69 1.566,2.532 1.174,2.214 0.919,1.736 0.663,1.263 0.615,0.758 0.775,0.222"
               id="path3551"
               style="fill:#000000;fill-opacity:1;fill-rule:nonzero;stroke:none" />
          </g>
        </g>
      </g>
      <g
         transform="matrix(7.4359594,0,0,-6.7588529,366.69111,291.9319)"
         id="g3553"
         style="fill:#000000">
        <path
           d="M 0,0 0.432,-4.53 1.984,-4.382 2.055,-5.131 -0.293,-5.355 -0.796,-0.076 0,0 z"
           id="path3555"
           style="fill:#000000;fill-opacity:1;fill-rule:nonzero;stroke:none" />
      </g>
      <g
         transform="matrix(7.4359594,0,0,-6.7588529,391.02514,325.63225)"
         id="g3557"
         style="fill:#000000">
        <path
           d="M 0,0 1.848,5.509 3.117,1.185 5.523,5.028 5.776,-0.757 4.962,-0.65 4.871,2.591 2.867,-0.619 1.802,2.996 0.821,-0.108 0,0 z"
           id="path3559"
           style="fill:#000000;fill-opacity:1;fill-rule:nonzero;stroke:none" />
      </g>
      <g
         transform="matrix(7.4359594,0,0,-6.7588529,-3690.2131,5905.7782)"
         id="g3561"
         style="fill:#000000">
        <g
           clip-path="url(#clipPath3565)"
           id="g3563"
           style="fill:#000000">
          <g
             transform="translate(562.968,826.2102)"
             id="g3569"
             style="fill:#000000">
            <path
               d="M 0,0 -0.752,-0.056 C -0.767,0.187 -0.81,0.361 -0.88,0.467 -0.95,0.584 -1.066,0.682 -1.228,0.763 -1.427,0.861 -1.62,0.887 -1.807,0.839 -1.994,0.793 -2.129,0.686 -2.212,0.517 -2.328,0.285 -2.248,0.013 -1.973,-0.3 l 0.377,-0.429 c 0.309,-0.348 0.496,-0.678 0.563,-0.992 0.067,-0.313 0.02,-0.633 -0.142,-0.96 -0.217,-0.438 -0.542,-0.727 -0.974,-0.869 -0.436,-0.142 -0.871,-0.106 -1.306,0.11 -0.412,0.205 -0.692,0.496 -0.839,0.874 -0.143,0.376 -0.138,0.802 0.016,1.277 l 0.806,-0.2 c -0.106,-0.295 -0.144,-0.516 -0.115,-0.664 0.046,-0.278 0.21,-0.488 0.493,-0.628 0.224,-0.111 0.447,-0.128 0.669,-0.052 0.222,0.077 0.39,0.23 0.504,0.46 0.046,0.092 0.075,0.183 0.087,0.273 0.013,0.09 0.008,0.18 -0.015,0.272 -0.022,0.092 -0.063,0.187 -0.121,0.286 -0.058,0.099 -0.134,0.204 -0.228,0.315 l -0.365,0.418 C -3.078,-0.21 -3.204,0.353 -2.942,0.883 -2.764,1.24 -2.48,1.47 -2.087,1.575 -1.694,1.681 -1.294,1.634 -0.888,1.432 -0.341,1.161 -0.045,0.683 0,0"
               id="path3571"
               style="fill:#000000;fill-opacity:1;fill-rule:nonzero;stroke:none" />
          </g>
          <g
             transform="translate(568.1271,823.202)"
             id="g3573"
             style="fill:#000000">
            <path
               d="m 0,0 -0.569,-0.754 c -0.136,0.588 -0.401,1.03 -0.796,1.329 -0.434,0.328 -0.918,0.449 -1.453,0.361 -0.534,-0.084 -0.971,-0.351 -1.31,-0.801 -0.336,-0.444 -0.469,-0.931 -0.401,-1.463 0.069,-0.531 0.321,-0.961 0.756,-1.29 0.224,-0.17 0.443,-0.277 0.655,-0.323 0.115,-0.03 0.244,-0.049 0.384,-0.058 0.141,-0.009 0.297,-0.009 0.467,0 l -0.582,-0.77 c -0.521,0.069 -0.983,0.256 -1.384,0.559 -0.605,0.457 -0.961,1.058 -1.07,1.803 -0.105,0.747 0.07,1.421 0.524,2.022 0.407,0.538 0.948,0.883 1.623,1.035 0.829,0.186 1.591,0.015 2.287,-0.511 C -0.489,0.852 -0.199,0.472 0,0"
               id="path3575"
               style="fill:#000000;fill-opacity:1;fill-rule:nonzero;stroke:none" />
          </g>
        </g>
      </g>
      <g
         transform="matrix(7.4359594,0,0,-6.7588529,540.97156,364.96877)"
         id="g3577"
         style="fill:#000000">
        <path
           d="m 0,0 1.487,-1.736 1.576,1.35 0.523,-0.61 -4.031,-3.453 -0.522,0.61 1.881,1.611 -1.488,1.737 -1.881,-1.612 -0.522,0.61 L 1.054,1.96 1.576,1.35 0,0 z"
           id="path3579"
           style="fill:#000000;fill-opacity:1;fill-rule:nonzero;stroke:none" />
      </g>
      <g
         transform="matrix(7.4359594,0,0,-6.7588529,-3690.2131,5905.7782)"
         id="g3581"
         style="fill:#000000">
        <g
           clip-path="url(#clipPath3585)"
           id="g3583"
           style="fill:#000000">
          <g
             transform="translate(571.5128,815.902)"
             id="g3589"
             style="fill:#000000">
            <path
               d="M 0,0 C 0.661,0.347 1.356,0.403 2.084,0.167 2.812,-0.066 3.354,-0.522 3.709,-1.199 4.06,-1.868 4.122,-2.567 3.894,-3.296 3.668,-4.028 3.219,-4.57 2.549,-4.922 1.874,-5.276 1.174,-5.335 0.451,-5.1 c -0.727,0.237 -1.27,0.698 -1.629,1.383 -0.319,0.606 -0.394,1.26 -0.228,1.963 C -1.221,-0.979 -0.752,-0.395 0,0 m 0.369,-0.72 c -0.519,-0.273 -0.854,-0.67 -1.006,-1.194 -0.152,-0.522 -0.109,-1.009 0.129,-1.463 0.258,-0.492 0.646,-0.818 1.164,-0.977 0.522,-0.158 1.03,-0.107 1.524,0.153 0.501,0.262 0.832,0.649 0.995,1.161 0.166,0.511 0.121,1.011 -0.137,1.501 -0.256,0.488 -0.642,0.811 -1.159,0.968 -0.513,0.16 -1.016,0.11 -1.51,-0.149"
               id="path3591"
               style="fill:#000000;fill-opacity:1;fill-rule:nonzero;stroke:none" />
          </g>
          <g
             transform="translate(574.5665,809.7093)"
             id="g3593"
             style="fill:#000000">
            <path
               d="M 0,0 C 0.726,0.171 1.413,0.051 2.059,-0.359 2.706,-0.767 3.116,-1.343 3.292,-2.088 3.465,-2.824 3.351,-3.517 2.949,-4.167 2.547,-4.819 1.978,-5.232 1.24,-5.406 0.499,-5.58 -0.193,-5.463 -0.835,-5.054 c -0.644,0.411 -1.056,0.993 -1.233,1.747 -0.157,0.666 -0.067,1.32 0.269,1.959 C -1.426,-0.644 -0.827,-0.195 0,0 m 0.177,-0.789 c -0.57,-0.134 -0.993,-0.436 -1.27,-0.905 -0.278,-0.468 -0.357,-0.951 -0.24,-1.451 0.128,-0.541 0.422,-0.955 0.884,-1.239 0.465,-0.283 0.97,-0.361 1.513,-0.233 0.549,0.129 0.967,0.422 1.252,0.877 0.287,0.453 0.367,0.95 0.241,1.489 -0.127,0.538 -0.42,0.947 -0.881,1.229 -0.457,0.283 -0.957,0.361 -1.499,0.233"
               id="path3595"
               style="fill:#000000;fill-opacity:1;fill-rule:nonzero;stroke:none" />
          </g>
        </g>
      </g>
      <g
         transform="matrix(7.4359594,0,0,-6.7588529,611.81305,488.37526)"
         id="g3597"
         style="fill:#000000">
        <path
           d="M 0,0 -4.547,-0.095 -4.515,-1.653 -5.266,-1.669 -5.315,0.687 -0.017,0.798 0,0 z"
           id="path3599"
           style="fill:#000000;fill-opacity:1;fill-rule:nonzero;stroke:none" />
      </g>
      <g
         transform="matrix(7.4359594,0,0,-6.7588529,-3690.2131,5905.7782)"
         id="g3601"
         style="fill:#000000">
        <g
           clip-path="url(#clipPath3605)"
           id="g3603"
           style="fill:#000000">
          <g
             transform="translate(523.0509,788.9581)"
             id="g3609"
             style="fill:#000000">
            <path
               d="M 0,0 C 0.646,0.376 1.338,0.462 2.077,0.258 2.814,0.057 3.375,-0.374 3.759,-1.035 4.139,-1.688 4.231,-2.384 4.035,-3.123 3.84,-3.863 3.415,-4.425 2.759,-4.806 2.1,-5.19 1.403,-5.279 0.67,-5.076 c -0.737,0.204 -1.3,0.641 -1.689,1.31 -0.344,0.592 -0.448,1.242 -0.312,1.951 C -1.178,-1.032 -0.735,-0.427 0,0 m 0.398,-0.702 c -0.506,-0.295 -0.824,-0.707 -0.953,-1.238 -0.13,-0.528 -0.066,-1.014 0.192,-1.457 0.28,-0.48 0.682,-0.789 1.206,-0.926 0.529,-0.135 1.035,-0.062 1.518,0.219 0.489,0.285 0.804,0.686 0.944,1.205 0.144,0.518 0.077,1.016 -0.201,1.495 -0.278,0.476 -0.678,0.782 -1.202,0.917 -0.519,0.138 -1.021,0.066 -1.504,-0.215"
               id="path3611"
               style="fill:#000000;fill-opacity:1;fill-rule:nonzero;stroke:none" />
          </g>
        </g>
      </g>
      <g
         transform="matrix(7.4359594,0,0,-6.7588529,250.79122,618.25267)"
         id="g3613"
         style="fill:#000000">
        <path
           d="M 0,0 -1.221,1.388 -2.18,0.544 -1.002,-0.794 -1.565,-1.29 -2.743,0.049 -4.641,-1.621 -5.171,-1.019 -1.188,2.486 0.563,0.496 0,0 z"
           id="path3615"
           style="fill:#000000;fill-opacity:1;fill-rule:nonzero;stroke:none" />
      </g>
      <g
         transform="matrix(7.4359594,0,0,-6.7588529,292.22855,647.45162)"
         id="g3617"
         style="fill:#000000">
        <path
           d="m 0,0 -1.774,1.172 -0.7,-1.061 1.722,-1.138 -0.416,-0.629 -1.722,1.137 -0.974,-1.475 1.774,-1.171 -0.416,-0.63 -2.442,1.613 2.922,4.425 L 0.416,0.63 0,0 z"
           id="path3619"
           style="fill:#000000;fill-opacity:1;fill-rule:nonzero;stroke:none" />
      </g>
      <g
         transform="matrix(7.4359594,0,0,-6.7588529,-3690.2131,5905.7782)"
         id="g3621"
         style="fill:#000000">
        <g
           clip-path="url(#clipPath3625)"
           id="g3623"
           style="fill:#000000">
          <g
             transform="translate(540.595,776.2173)"
             id="g3629"
             style="fill:#000000">
            <path
               d="M 0,0 -0.366,-0.871 C -0.643,-0.336 -1.009,0.028 -1.465,0.22 -1.967,0.431 -2.466,0.429 -2.962,0.212 -3.459,-0.001 -3.816,-0.368 -4.035,-0.887 -4.25,-1.4 -4.259,-1.905 -4.061,-2.403 c 0.197,-0.499 0.547,-0.853 1.05,-1.064 0.259,-0.11 0.497,-0.16 0.714,-0.152 0.119,0 0.248,0.012 0.387,0.038 0.139,0.026 0.29,0.065 0.453,0.116 l -0.375,-0.891 c -0.522,-0.061 -1.016,0.006 -1.48,0.201 -0.698,0.294 -1.192,0.788 -1.481,1.483 -0.286,0.699 -0.284,1.395 0.008,2.089 0.262,0.623 0.702,1.091 1.319,1.405 0.758,0.383 1.539,0.406 2.343,0.068 C -0.684,0.706 -0.31,0.409 0,0"
               id="path3631"
               style="fill:#000000;fill-opacity:1;fill-rule:nonzero;stroke:none" />
          </g>
          <g
             transform="translate(540.9987,773.5944)"
             id="g3633"
             style="fill:#000000">
            <path
               d="M 0,0 C 0.129,0.735 0.508,1.319 1.14,1.752 1.768,2.185 2.46,2.336 3.213,2.205 3.957,2.074 4.548,1.697 4.988,1.072 5.429,0.446 5.584,-0.239 5.454,-0.985 5.322,-1.736 4.943,-2.326 4.315,-2.755 3.684,-3.186 2.987,-3.335 2.225,-3.201 1.551,-3.083 0.986,-2.744 0.531,-2.184 0.031,-1.564 -0.146,-0.836 0,0 M 0.794,-0.148 C 0.693,-0.723 0.804,-1.23 1.127,-1.669 1.448,-2.108 1.861,-2.371 2.366,-2.46 2.913,-2.555 3.408,-2.447 3.851,-2.135 4.294,-1.819 4.564,-1.386 4.66,-0.838 4.757,-0.282 4.652,0.216 4.346,0.656 4.042,1.099 3.618,1.368 3.073,1.463 2.529,1.558 2.038,1.449 1.597,1.137 1.158,0.829 0.89,0.401 0.794,-0.148"
               id="path3635"
               style="fill:#000000;fill-opacity:1;fill-rule:nonzero;stroke:none" />
          </g>
        </g>
      </g>
      <g
         transform="matrix(7.4359594,0,0,-6.7588529,386.07101,701.88537)"
         id="g3637"
         style="fill:#000000">
        <path
           d="M 0,0 -0.362,5.652 3.756,1.862 3.52,5.539 4.318,5.59 4.678,-0.023 0.561,3.756 0.799,0.051 0,0 z"
           id="path3639"
           style="fill:#000000;fill-opacity:1;fill-rule:nonzero;stroke:none" />
      </g>
      <g
         transform="matrix(7.4359594,0,0,-6.7588529,-3690.2131,5905.7782)"
         id="g3641"
         style="fill:#000000">
        <g
           clip-path="url(#clipPath3645)"
           id="g3643"
           style="fill:#000000">
          <g
             transform="translate(554.1758,773.1278)"
             id="g3649"
             style="fill:#000000">
            <path
               d="M 0,0 C -0.22,0.713 -0.148,1.407 0.217,2.081 0.579,2.753 1.126,3.203 1.857,3.428 2.579,3.651 3.278,3.584 3.954,3.227 4.632,2.871 5.083,2.331 5.306,1.606 5.531,0.877 5.462,0.179 5.098,-0.49 4.732,-1.161 4.18,-1.611 3.44,-1.84 2.786,-2.042 2.129,-1.996 1.468,-1.704 0.74,-1.38 0.251,-0.812 0,0 m 0.775,0.23 c 0.173,-0.559 0.503,-0.961 0.99,-1.206 0.486,-0.245 0.973,-0.292 1.463,-0.141 0.531,0.164 0.923,0.486 1.175,0.966 0.25,0.485 0.292,0.993 0.128,1.527 C 4.364,1.916 4.044,2.312 3.571,2.566 3.099,2.822 2.598,2.869 2.069,2.706 1.542,2.543 1.154,2.222 0.904,1.743 0.654,1.268 0.611,0.764 0.775,0.23"
               id="path3651"
               style="fill:#000000;fill-opacity:1;fill-rule:nonzero;stroke:none" />
          </g>
        </g>
      </g>
      <g
         transform="matrix(7.4359594,0,0,-6.7588529,487.63313,681.90149)"
         id="g3653"
         style="fill:#000000">
        <path
           d="M 0,0 -1.987,5.459 1.699,2.869 1.186,7.372 4.989,3.007 4.285,2.583 2.195,5.06 2.63,1.298 -0.457,3.466 0.709,0.427 0,0 z"
           id="path3655"
           style="fill:#000000;fill-opacity:1;fill-rule:nonzero;stroke:none" />
      </g>
      <g
         transform="matrix(7.4359594,0,0,-6.7588529,515.69049,620.73928)"
         id="g3657"
         style="fill:#000000">
        <path
           d="M 0,0 3.524,-3.968 2.924,-4.501 -0.6,-0.533 0,0 z"
           id="path3659"
           style="fill:#000000;fill-opacity:1;fill-rule:nonzero;stroke:none" />
      </g>
      <g
         transform="matrix(7.4359594,0,0,-6.7588529,-3690.2131,5905.7782)"
         id="g3661"
         style="fill:#000000">
        <g
           clip-path="url(#clipPath3665)"
           id="g3663"
           style="fill:#000000">
          <g
             transform="translate(569.6351,785.9442)"
             id="g3669"
             style="fill:#000000">
            <path
               d="m 0,0 0.723,-0.61 c -0.594,-0.104 -1.051,-0.345 -1.37,-0.723 -0.351,-0.416 -0.498,-0.894 -0.439,-1.432 0.055,-0.538 0.299,-0.989 0.73,-1.352 0.425,-0.359 0.905,-0.519 1.44,-0.479 0.534,0.041 0.977,0.269 1.329,0.686 0.182,0.215 0.301,0.427 0.358,0.637 0.036,0.114 0.062,0.241 0.078,0.381 0.017,0.14 0.025,0.296 0.026,0.466 L 3.613,-3.049 C 3.516,-3.566 3.305,-4.017 2.98,-4.402 2.491,-4.981 1.872,-5.305 1.122,-5.374 c -0.752,-0.064 -1.415,0.147 -1.991,0.633 -0.516,0.436 -0.833,0.995 -0.949,1.677 -0.141,0.838 0.07,1.59 0.633,2.257 C -0.878,-0.443 -0.483,-0.174 0,0"
               id="path3671"
               style="fill:#000000;fill-opacity:1;fill-rule:nonzero;stroke:none" />
          </g>
          <g
             transform="translate(572.222,789.5457)"
             id="g3673"
             style="fill:#000000">
            <path
               d="m 0,0 0.027,-0.754 c -0.243,-0.006 -0.419,-0.041 -0.528,-0.107 -0.119,-0.065 -0.222,-0.177 -0.308,-0.336 -0.107,-0.195 -0.139,-0.387 -0.099,-0.576 0.039,-0.188 0.14,-0.326 0.306,-0.417 0.227,-0.123 0.502,-0.055 0.824,0.206 l 0.443,0.36 c 0.358,0.294 0.695,0.468 1.011,0.522 0.315,0.055 0.633,-0.005 0.953,-0.18 0.428,-0.233 0.704,-0.569 0.829,-1.006 0.125,-0.441 0.071,-0.874 -0.161,-1.3 C 3.077,-3.992 2.775,-4.26 2.391,-4.392 2.009,-4.52 1.583,-4.498 1.114,-4.326 l 0.231,0.797 c 0.291,-0.117 0.51,-0.163 0.659,-0.14 0.28,0.035 0.496,0.191 0.646,0.469 0.12,0.219 0.146,0.44 0.078,0.665 C 2.66,-2.31 2.514,-2.137 2.289,-2.014 2.199,-1.965 2.109,-1.932 2.02,-1.916 1.93,-1.9 1.84,-1.902 1.748,-1.92 1.655,-1.939 1.559,-1.976 1.457,-2.03 1.356,-2.084 1.249,-2.156 1.135,-2.245 L 0.703,-2.592 c -0.616,-0.49 -1.183,-0.594 -1.702,-0.311 -0.349,0.19 -0.568,0.484 -0.657,0.88 -0.091,0.397 -0.028,0.794 0.189,1.192 C -1.175,-0.294 -0.686,-0.017 0,0"
               id="path3675"
               style="fill:#000000;fill-opacity:1;fill-rule:nonzero;stroke:none" />
          </g>
          <g
             transform="translate(521.608,794.6187)"
             id="g3677"
             style="fill:#000000">
            <path
               d="m 0,0 c 0,-0.386 -0.313,-0.7 -0.7,-0.7 -0.386,0 -0.699,0.314 -0.699,0.7 0,0.386 0.313,0.7 0.699,0.7 C -0.313,0.7 0,0.386 0,0"
               id="path3679"
               style="fill:#000000;fill-opacity:1;fill-rule:nonzero;stroke:none" />
          </g>
          <g
             transform="translate(575.9532,794.6187)"
             id="g3681"
             style="fill:#000000">
            <path
               d="m 0,0 c 0,-0.386 -0.313,-0.7 -0.7,-0.7 -0.386,0 -0.699,0.314 -0.699,0.7 0,0.386 0.313,0.7 0.699,0.7 C -0.313,0.7 0,0.386 0,0"
               id="path3683"
               style="fill:#000000;fill-opacity:1;fill-rule:nonzero;stroke:none" />
          </g>
          <g
             id="g3685"
             style="fill:#000000">
            <g
               id="g3687"
               style="fill:#000000" />
            <g
               id="g3693"
               style="fill:#000000">
              <g
                 clip-path="url(#clipPath3689)"
                 id="g3695"
                 style="opacity:0.75;fill:#000000" />
            </g>
          </g>
        </g>
      </g>
    </g>
  </g>
</svg>
